<svg xmlns="http://www.w3.org/2000/svg" viewBox="0 0 720 180" role="img" aria-label="CentralMark">
  <defs>
    <linearGradient id="cmGrad" x1="0%" y1="0%" x2="0%" y2="100%">
      <stop offset="0%" stop-color="#00C2FF"/>
      <stop offset="45%" stop-color="#2F6BFF"/>
      <stop offset="100%" stop-color="#C026FF"/>
    </linearGradient>
    <linearGradient id="cmGradH" x1="0%" y1="0%" x2="100%" y2="0%">
      <stop offset="0%" stop-color="#00C2FF"/>
      <stop offset="50%" stop-color="#2F6BFF"/>
      <stop offset="100%" stop-color="#C026FF"/>
    </linearGradient>
  </defs>
  <!-- C mark -->
  <path fill="url(#cmGrad)" d="M118 28c-42 0-76 32-76 74s34 74 76 74c18 0 34-6 47-16l-14-18c-9 7-20 11-33 11-28 0-50-21-50-51s22-51 50-51c13 0 24 4 33 11l14-18c-13-10-29-16-47-16z"/>
  <!-- speech bubble -->
  <rect x="78" y="72" width="40" height="30" rx="10" fill="#0B1B4D"/>
  <circle cx="88" cy="87" r="3.2" fill="#fff"/>
  <circle cx="98" cy="87" r="3.2" fill="#fff"/>
  <circle cx="108" cy="87" r="3.2" fill="#fff"/>
  <path fill="#0B1B4D" d="M90 102l8 10 2-10z"/>
  <!-- sparkle + pixels -->
  <path fill="url(#cmGradH)" d="M152 58l4 10 10 4-10 4-4 10-4-10-10-4 10-4z"/>
  <rect x="172" y="70" width="7" height="7" rx="1.5" fill="#7B5CFF" opacity=".9"/>
  <rect x="184" y="62" width="5" height="5" rx="1" fill="#C026FF" opacity=".75"/>
  <rect x="192" y="76" width="4" height="4" rx="1" fill="#00C2FF" opacity=".7"/>
  <!-- wordmark -->
  <text x="220" y="98" font-family="Arial, Helvetica, sans-serif" font-size="54" font-weight="800" letter-spacing="-1.2">
    <tspan fill="#0B1B4D">Central</tspan><tspan fill="url(#cmGradH)">Mark</tspan>
  </text>
  <text x="222" y="132" font-family="Arial, Helvetica, sans-serif" font-size="14" font-weight="700" letter-spacing="4.5" fill="#0B1B4D">MARKETING EN SEGUNDOS</text>
</svg>
